HIERARCHY
ROOT Hips
{
	OFFSET 0.00000 0.00000 0.00000
	CHANNELS 6 Xposition Yposition Zposition Zrotation Yrotation Xrotation 
	JOINT LHipJoint
	{
		OFFSET 0 0 0
		CHANNELS 3 Zrotation Yrotation Xrotation
		JOINT LeftUpLeg
		{
			OFFSET 1.49846 -1.74315 1.08250
			CHANNELS 3 Zrotation Yrotation Xrotation
			JOINT LeftLeg
			{
				OFFSET 2.40966 -6.62050 0.00000
				CHANNELS 3 Zrotation Yrotation Xrotation
				JOINT LeftFoot
				{
					OFFSET 2.68066 -7.36505 0.00000
					CHANNELS 3 Zrotation Yrotation Xrotation
					JOINT LeftToeBase
					{
						OFFSET 0.14291 -0.39265 2.35870
						CHANNELS 3 Zrotation Yrotation Xrotation
						End Site
						{
							OFFSET 0.00000 -0.00000 1.20470
						}
					}
				}
			}
		}
	}
	JOINT RHipJoint
	{
		OFFSET 0 0 0
		CHANNELS 3 Zrotation Yrotation Xrotation
		JOINT RightUpLeg
		{
			OFFSET -1.46318 -1.74316 1.08250
			CHANNELS 3 Zrotation Yrotation Xrotation
			JOINT RightLeg
			{
				OFFSET -2.39759 -6.58734 0.00000
				CHANNELS 3 Zrotation Yrotation Xrotation
				JOINT RightFoot
				{
					OFFSET -2.63570 -7.24154 0.00000
					CHANNELS 3 Zrotation Yrotation Xrotation
					JOINT RightToeBase
					{
						OFFSET -0.17578 -0.48294 2.47180
						CHANNELS 3 Zrotation Yrotation Xrotation
						End Site
						{
							OFFSET -0.00000 -0.00000 1.26600
						}
					}
				}
			}
		}
	}
	JOINT LowerBack
	{
		OFFSET 0 0 0
		CHANNELS 3 Zrotation Yrotation Xrotation
		JOINT Spine
		{
			OFFSET 0.00843 2.19877 -0.20423
			CHANNELS 3 Zrotation Yrotation Xrotation
			JOINT Spine1
			{
				OFFSET -0.03080 2.21436 -0.05138
				CHANNELS 3 Zrotation Yrotation Xrotation
				JOINT Neck
				{
					OFFSET 0 0 0
					CHANNELS 3 Zrotation Yrotation Xrotation
					JOINT Neck1
					{
						OFFSET -0.04063 1.58841 0.30440
						CHANNELS 3 Zrotation Yrotation Xrotation
						JOINT Head
						{
							OFFSET 0.09277 1.59484 -0.39337
							CHANNELS 3 Zrotation Yrotation Xrotation
							End Site
							{
								OFFSET 0.03488 1.66530 -0.17040
							}
						}
					}
				}
				JOINT LeftShoulder
				{
					OFFSET 0 0 0
					CHANNELS 3 Zrotation Yrotation Xrotation
					JOINT LeftArm
					{
						OFFSET 3.03849 1.31522 0.02556
						CHANNELS 3 Zrotation Yrotation Xrotation
						JOINT LeftForeArm
						{
							OFFSET 5.25537 -0.00000 0.00000
							CHANNELS 3 Zrotation Yrotation Xrotation
							JOINT LeftHand
							{
								OFFSET 3.38855 -0.00000 -0.00000
								CHANNELS 3 Zrotation Yrotation Xrotation
								JOINT LeftFingerBase
								{
									OFFSET 0 0 0
									CHANNELS 3 Zrotation Yrotation Xrotation
									JOINT LeftHandIndex1
									{
										OFFSET 0.61452 -0.00000 0.00000
										CHANNELS 3 Zrotation Yrotation Xrotation
										End Site
										{
											OFFSET 0.49544 -0.00000 0.00000
										}
									}
								}
								JOINT LThumb
								{
									OFFSET 0 0 0
									CHANNELS 3 Zrotation Yrotation Xrotation
									End Site
									{
										OFFSET 0.50300 -0.00000 0.50300
									}
								}
							}
						}
					}
				}
				JOINT RightShoulder
				{
					OFFSET 0 0 0
					CHANNELS 3 Zrotation Yrotation Xrotation
					JOINT RightArm
					{
						OFFSET -3.06926 1.12091 -0.13185
						CHANNELS 3 Zrotation Yrotation Xrotation
						JOINT RightForeArm
						{
							OFFSET -5.38183 -0.00000 0.00000
							CHANNELS 3 Zrotation Yrotation Xrotation
							JOINT RightHand
							{
								OFFSET -3.16988 -0.00000 0.00000
								CHANNELS 3 Zrotation Yrotation Xrotation
								JOINT RightFingerBase
								{
									OFFSET 0 0 0
									CHANNELS 3 Zrotation Yrotation Xrotation
									JOINT RightHandIndex1
									{
										OFFSET -0.63768 -0.00000 0.00000
										CHANNELS 3 Zrotation Yrotation Xrotation
										End Site
										{
											OFFSET -0.51411 -0.00000 0.00000
										}
									}
								}
								JOINT RThumb
								{
									OFFSET 0 0 0
									CHANNELS 3 Zrotation Yrotation Xrotation
									End Site
									{
										OFFSET -0.52196 -0.00000 0.52196
									}
								}
							}
						}
					}
				}
			}
		}
	}
}
MOTION
Frames: 14
Frame Time: .0083333
4.4877 12.8639 8.1487 -1.0061 -0.7398 62.0394 0.0000 0.0000 0.0000 20.3340 12.4746 -11.5870 32.0666 16.0700 127.6776 -0.0197 -4.9500 6.3523 0.1692 2.6496 7.3046 0.0000 0.0000 0.0000 -34.8983 -7.9887 -6.1023 -33.9772 -14.4504 134.9267 0.5344 12.8672 3.6396 -0.5380 4.6998 -13.0543 0.4671 -1.0918 6.9616 -1.3294 -1.6331 -9.6460 -1.4166 -0.9316 -14.6012 -7.4620 -6.0313 -31.7514 9.2308 -8.1728 26.7937 3.3312 -2.8177 15.4534 -0.0000 -0.0000 0.0000 -34.6346 -72.1708 10.2118 98.1336 -59.7485 -67.0380 -0.0000 0.0000 -41.4686 39.7174 20.8861 16.4975 -7.1250 0.0000 -0.0000 12.3362 55.9375 3.3465 -0.0000 -0.0000 0.0000 71.2642 74.6714 39.0706 -107.0931 58.8667 -74.7467 0.0000 -0.0000 -66.8117 -41.8273 -2.2675 2.0280 7.1250 -0.0000 -0.0000 -12.3233 -32.8418 -3.7453
4.4890 12.8647 8.1889 -1.0555 -0.7032 62.3467 0.0000 0.0000 0.0000 21.4720 12.0173 -11.4904 32.2067 15.9651 128.1851 -0.0075 -4.4289 6.0299 0.2176 3.0027 8.2863 0.0000 0.0000 0.0000 -34.6743 -7.4990 -6.0455 -33.8215 -14.5991 134.3060 0.4090 11.3625 2.4746 -0.4649 4.3737 -12.1303 0.6254 -1.0945 6.4583 -1.3945 -1.6243 -9.7561 -1.5865 -0.9506 -14.4200 -7.4215 -5.9382 -31.1479 9.0368 -8.1141 27.6857 3.2863 -2.8237 15.7208 0.0000 0.0000 0.0000 -29.8812 -73.6327 5.4698 90.3826 -59.9994 -60.3313 -0.0000 0.0000 -40.9636 39.1427 20.9162 16.2023 -7.1250 0.0000 -0.0000 11.6607 55.8316 3.1295 0.0000 0.0000 0.0000 70.7336 76.6175 37.6175 -99.7407 59.6384 -68.4255 0.0000 -0.0000 -66.7364 -41.2816 -2.6327 2.3093 7.1250 -0.0000 -0.0000 -11.9381 -33.3048 -3.4872
4.4905 12.8628 8.2290 -1.1073 -0.6905 62.6824 0.0000 0.0000 0.0000 22.3600 11.5495 -11.3812 32.2536 15.9295 128.3559 0.0093 -3.5853 5.5274 0.2836 3.4250 9.4644 0.0000 0.0000 0.0000 -34.2491 -7.1146 -5.9408 -33.5791 -14.8241 133.3517 0.2940 9.8143 1.2357 -0.4019 4.0702 -11.2741 0.7801 -1.0854 6.0083 -1.4832 -1.6040 -9.8642 -1.7815 -0.9651 -14.2710 -7.3727 -5.8393 -30.5433 8.8658 -8.0520 28.5355 3.2499 -2.8249 15.9730 0.0000 0.0000 0.0000 -23.6912 -75.0077 -0.5466 82.4104 -59.7812 -53.4321 -0.0000 0.0000 -40.5723 38.6414 21.0153 15.9979 -7.1250 0.0000 -0.0000 11.0751 55.8266 2.9681 0.0000 0.0000 0.0000 69.3584 78.6292 35.4404 -91.8897 59.9865 -61.6364 0.0000 -0.0000 -66.7227 -40.8287 -3.0385 2.6223 7.1250 -0.0000 -0.0000 -11.6284 -33.8170 -3.2462
4.4921 12.8586 8.2679 -1.1519 -0.7000 63.0444 0.0000 0.0000 0.0000 22.9444 11.0494 -11.2584 32.2041 15.9670 128.1760 0.0242 -2.4965 4.8684 0.3640 3.8755 10.7267 0.0000 0.0000 0.0000 -33.6665 -6.8271 -5.7939 -33.2535 -15.1147 132.0911 0.1927 8.2657 -0.0198 -0.3467 3.7835 -10.4682 0.9309 -1.0679 5.6080 -1.6005 -1.5770 -9.9635 -2.0063 -0.9778 -14.1444 -7.2979 -5.7330 -29.9630 8.7050 -7.9872 29.3517 3.2134 -2.8207 16.2172 -0.0000 -0.0000 0.0000 -15.5103 -76.1914 -8.3390 74.5033 -59.0729 -46.6212 -0.0000 0.0000 -40.3944 38.2428 21.1474 15.8722 -7.1250 0.0000 -0.0000 10.6096 55.8854 2.8565 -0.0000 -0.0000 0.0000 66.5230 80.6882 31.9427 -83.8171 59.8551 -54.6480 0.0000 -0.0000 -66.8305 -40.4803 -3.4122 2.9080 7.1250 -0.0000 -0.0000 -11.3948 -34.2862 -3.0465
4.4939 12.8523 8.3057 -1.1930 -0.7174 63.4357 0.0000 0.0000 0.0000 23.2261 10.5183 -11.1114 32.0531 16.0801 127.6287 0.0315 -1.2924 4.0932 0.4543 4.3239 11.9898 0.0000 0.0000 0.0000 -32.9502 -6.6300 -5.6135 -32.8461 -15.4601 130.5459 0.1063 6.7531 -1.2732 -0.3004 3.5239 -9.7409 1.0956 -1.0454 5.2496 -1.7406 -1.5448 -10.0534 -2.2638 -0.9908 -14.0345 -7.1972 -5.6197 -29.4117 8.5478 -7.9175 30.1360 3.1743 -2.8107 16.4546 0.0000 -0.0000 0.0000 -5.1542 -77.0120 -18.0768 66.9202 -57.8883 -40.1540 -0.0000 0.0000 -40.4107 37.9240 21.3369 15.8277 -7.1250 0.0000 -0.0000 10.2351 56.0310 2.7903 0.0000 -0.0000 0.0000 61.1388 82.7430 26.0157 -75.7334 59.2168 -47.6773 0.0000 -0.0000 -66.9088 -40.1286 -3.8391 3.2302 7.1250 -0.0000 -0.0000 -11.1612 -34.8193 -2.8348
4.4958 12.8447 8.3418 -1.2285 -0.7411 63.8530 0.0000 0.0000 0.0000 23.2134 9.9529 -10.9376 31.7977 16.2661 126.7119 0.0293 -0.0832 3.2621 0.5509 4.7549 13.2108 0.0000 0.0000 0.0000 -32.1483 -6.5138 -5.4180 -32.3598 -15.8481 128.7439 0.0344 5.2992 -2.4955 -0.2611 3.2871 -9.0791 1.2483 -0.9978 4.9462 -1.9051 -1.4824 -10.1391 -2.5459 -0.9896 -13.9534 -7.0586 -5.5205 -28.8648 8.3710 -7.8714 30.8782 3.1129 -2.8087 16.6752 -0.0000 0.0000 0.0000 6.5656 -77.3921 -28.9267 59.8906 -56.2807 -34.2501 -0.0000 0.0000 -40.3280 37.6046 21.5869 15.8215 -7.1250 0.0000 -0.0000 9.8556 56.2464 2.7370 -0.0000 0.0000 0.0000 50.0513 84.6334 14.4852 -67.8879 58.0694 -40.9744 0.0000 -0.0000 -66.9024 -39.7452 -4.3435 3.6036 7.1250 -0.0000 -0.0000 -10.9060 -35.4445 -2.5992
4.4978 12.8361 8.3761 -1.2583 -0.7554 64.2947 0.0000 0.0000 0.0000 22.9455 9.3537 -10.7341 31.4352 16.5194 125.4274 0.0184 1.0587 2.4140 0.6389 5.1138 14.2333 0.0000 0.0000 0.0000 -31.2698 -6.4654 -5.2139 -31.7945 -16.2683 126.7006 -0.0244 3.8963 -3.6724 -0.2270 3.0670 -8.4653 1.3647 -0.9121 4.6883 -2.0745 -1.3717 -10.2189 -2.8205 -0.9611 -13.8893 -6.8898 -5.4548 -28.2924 8.1566 -7.8658 31.5535 3.0174 -2.8255 16.8599 0.0000 0.0000 0.0000 18.6928 -77.3239 -39.9626 53.5547 -54.3323 -29.0382 -0.0000 0.0000 -40.0703 37.2703 21.9111 15.8530 -7.1250 0.0000 -0.0000 9.4515 56.5434 2.6915 0.0000 0.0000 0.0000 27.0389 85.9813 -8.8225 -60.5558 56.4562 -34.8039 0.0000 -0.0000 -66.9193 -39.3209 -4.8655 3.9742 7.1250 -0.0000 -0.0000 -10.6120 -36.0837 -2.3591
4.5000 12.8268 8.4081 -1.2846 -0.7512 64.7559 0.0000 0.0000 0.0000 22.4786 8.7320 -10.5019 30.9659 16.8296 123.7921 0.0013 2.1099 1.5747 0.7112 5.3898 15.0236 0.0000 0.0000 0.0000 -30.3231 -6.4691 -5.0095 -31.1499 -16.7103 124.4296 -0.0707 2.5662 -4.7827 -0.1972 2.8596 -7.8881 1.3860 -0.7519 4.4567 -2.2288 -1.1655 -10.2935 -3.0400 -0.8743 -13.8239 -6.7159 -5.4598 -27.5714 7.9020 -7.9422 32.0869 2.8793 -2.8843 16.9457 -0.0000 -0.0000 0.0000 30.4654 -76.9469 -50.4973 47.9297 -52.1256 -24.5303 -0.0000 0.0000 -39.6061 36.8877 22.2803 15.8830 -7.1250 0.0000 -0.0000 8.9820 56.8790 2.6293 -0.0000 -0.0000 0.0000 -7.0289 85.9501 -42.9772 -53.8849 54.4470 -29.3066 0.0000 -0.0000 -67.0012 -38.8691 -5.3845 4.3253 7.1250 -0.0000 -0.0000 -10.2873 -36.7105 -2.1251
4.5019 12.8173 8.4374 -1.3084 -0.7400 65.2227 0.0000 0.0000 0.0000 21.8674 8.1123 -10.2366 30.3918 17.1836 121.8293 -0.0208 3.1092 0.7538 0.7724 5.6115 15.6613 0.0000 0.0000 0.0000 -29.3542 -6.5020 -4.8079 -30.4255 -17.1635 121.9436 -0.1052 1.3361 -5.8052 -0.1701 2.6571 -7.3255 1.2076 -0.4848 4.2642 -2.3305 -0.8250 -10.3826 -3.1099 -0.6964 -13.7825 -6.5702 -5.5702 -26.6121 7.5888 -8.1327 32.4683 2.6910 -3.0068 16.9067 0.0000 0.0000 0.0000 41.5169 -76.4929 -60.3389 42.9659 -49.7321 -20.6747 -0.0000 0.0000 -38.8641 36.4015 22.6832 15.8721 -7.1250 0.0000 -0.0000 8.3797 57.2257 2.5215 0.0000 0.0000 0.0000 -30.1974 84.3804 -65.9125 -47.8942 52.1101 -24.5022 0.0000 -0.0000 -67.1527 -38.3537 -5.9338 4.6765 7.1250 -0.0000 -0.0000 -9.9035 -37.3637 -1.8835
4.5032 12.8065 8.4638 -1.3216 -0.7349 65.7165 0.0000 0.0000 0.0000 21.1483 7.5180 -9.9636 29.7164 17.5663 119.5678 -0.0483 4.1218 -0.0706 0.8301 5.8127 16.2419 0.0000 0.0000 0.0000 -28.3872 -6.5633 -4.6285 -29.6182 -17.6190 119.2430 -0.1295 0.2088 -6.7235 -0.1494 2.4906 -6.8635 0.8531 -0.1405 4.1026 -2.3858 -0.3895 -10.5078 -3.0442 -0.4503 -13.7946 -6.4621 -5.7620 -25.4096 7.2411 -8.4083 32.7124 2.4762 -3.1795 16.7460 -0.0000 0.0000 0.0000 51.9170 -75.8078 -69.5164 38.5627 -47.1949 -17.3772 -0.0000 0.0000 -38.1411 35.8243 23.0657 15.7919 -7.1250 0.0000 -0.0000 7.6620 57.5234 2.3588 -0.0000 0.0000 0.0000 -40.7354 82.0756 -75.8397 -42.5379 49.5037 -20.3487 0.0000 -0.0000 -67.3944 -37.7688 -6.4415 4.9680 7.1250 -0.0000 -0.0000 -9.4469 -37.9517 -1.6570
4.5042 12.7942 8.4876 -1.3375 -0.7243 66.2329 0.0000 0.0000 0.0000 20.3935 6.9732 -9.6824 28.9436 17.9626 117.0353 -0.0836 5.2030 -0.9250 0.8943 6.0275 16.8641 0.0000 0.0000 0.0000 -27.4112 -6.6324 -4.4684 -28.7244 -18.0673 116.3267 -0.1444 -0.8176 -7.5235 -0.1298 2.3221 -6.3968 0.4284 0.2199 4.0155 -2.3936 0.0667 -10.6732 -2.8910 -0.1840 -13.9058 -6.4131 -5.9844 -24.0925 6.8958 -8.7002 32.8982 2.2753 -3.3688 16.5311 -0.0000 0.0000 0.0000 61.0133 -74.8147 -77.4185 34.6290 -44.5454 -14.5525 -0.0000 0.0000 -37.4356 35.0417 23.4491 15.5927 -7.1250 0.0000 -0.0000 6.6919 57.7687 2.0979 -0.0000 0.0000 0.0000 -46.0462 79.5582 -80.1472 -37.7635 46.6876 -16.7933 0.0000 -0.0000 -67.6738 -37.0788 -6.9308 5.2105 7.1250 -0.0000 -0.0000 -8.8881 -38.5006 -1.4362
4.5046 12.7802 8.5090 -1.3550 -0.7136 66.7755 0.0000 0.0000 0.0000 19.6297 6.4847 -9.4063 28.0776 18.3577 114.2573 -0.1299 6.3952 -1.8393 0.9721 6.2768 17.5896 0.0000 0.0000 0.0000 -26.4429 -6.6982 -4.3322 -27.7429 -18.4972 113.1987 -0.1500 -1.7628 -8.1865 -0.1083 2.1223 -5.8437 0.0198 0.5251 4.0404 -2.3586 0.4510 -10.8777 -2.6924 0.0474 -14.1480 -6.4399 -6.1714 -22.8027 6.5871 -8.9187 33.0925 2.1257 -3.5317 16.3250 0.0000 0.0000 0.0000 68.1329 -73.4983 -83.3567 31.1056 -41.8224 -12.1402 -0.0000 0.0000 -36.7535 34.0082 23.8224 15.2441 -7.1250 0.0000 -0.0000 5.4188 57.9384 1.7192 0.0000 0.0000 0.0000 -49.7282 77.0794 -82.4542 -33.5339 43.7364 -13.7898 0.0000 -0.0000 -67.9535 -36.2567 -7.4912 5.4619 7.1250 -0.0000 -0.0000 -8.2078 -39.1160 -1.1994
4.5053 12.7649 8.5291 -1.3810 -0.6799 67.3134 0.0000 0.0000 0.0000 18.8943 6.0379 -9.1067 27.1202 18.7383 111.2483 -0.1894 7.6908 -2.8246 1.0742 6.5883 18.5012 0.0000 0.0000 0.0000 -25.4449 -6.7361 -4.1814 -26.6668 -18.8992 109.8428 -0.1444 -2.7140 -8.7117 -0.0853 1.8840 -5.1851 -0.2540 0.6993 4.2060 -2.2707 0.6706 -11.0729 -2.4891 0.1869 -14.4834 -6.5817 -6.2594 -21.7386 6.3698 -8.9737 33.3360 2.0714 -3.6236 16.1938 -0.0000 0.0000 0.0000 72.8626 -71.8561 -86.8958 27.9664 -39.0853 -10.1025 -0.0000 0.0000 -36.1758 32.7767 24.1931 14.7817 -7.1250 0.0000 -0.0000 3.9080 58.0548 1.2497 -0.0000 0.0000 0.0000 -53.4022 74.7690 -84.3721 -29.8275 40.7451 -11.2969 0.0000 -0.0000 -68.3224 -35.3784 -8.0079 5.6495 7.1250 -0.0000 -0.0000 -7.4619 -39.6629 -0.9879
4.5066 12.7494 8.5481 -1.4096 -0.6398 67.8096 0.0000 0.0000 0.0000 18.1681 5.6167 -8.7510 26.0732 19.0917 108.0192 -0.2631 9.0651 -3.8890 1.2070 6.9699 19.6263 0.0000 0.0000 0.0000 -24.4557 -6.7266 -3.9800 -25.4940 -19.2604 106.2559 -0.1245 -3.7252 -9.0918 -0.0602 1.5829 -4.3542 -0.3697 0.7342 4.5458 -2.1613 0.7124 -11.2193 -2.3242 0.2232 -14.8817 -6.8908 -6.2669 -20.9889 6.3794 -8.9198 33.5814 2.1617 -3.6539 16.1540 0.0000 0.0000 0.0000 75.6171 -69.9993 -88.4163 25.1744 -36.3817 -8.3931 -0.0000 0.0000 -35.5337 31.3700 24.5587 14.2195 -7.1250 0.0000 -0.0000 2.1919 58.1220 0.7040 0.0000 0.0000 0.0000 -57.2463 72.6066 -86.2248 -26.5884 37.7839 -9.2458 0.0000 -0.0000 -68.5514 -34.4680 -8.8575 6.0337 7.1250 -0.0000 -0.0000 -6.6837 -40.5943 -0.7298
